<?xml version="1.0" encoding="iso-8859-1"?>
<!-- Uploaded to: SVG Repo, www.svgrepo.com, Generator: SVG Repo Mixer Tools -->
<!DOCTYPE svg PUBLIC "-//W3C//DTD SVG 1.1//EN" "http://www.w3.org/Graphics/SVG/1.1/DTD/svg11.dtd">
<svg fill="#ffffff" height="800px" width="800px" version="1.1" id="Capa_1" xmlns="http://www.w3.org/2000/svg" xmlns:xlink="http://www.w3.org/1999/xlink" 
	 viewBox="0 0 297 297" xml:space="preserve">
<path d="M78.939,79.115c-9.878,3.494-13.418,17.396-7.951,32.896c3.324,9.419,9.112,16.859,15.483,19.902
	c1.438,0.688,2.614,1.151,4.058,1.389c4.318,8.711,9.971,17.395,15.971,24.922V181.5H82.516c-29.656,0-54.016,24.868-54.016,54.525
	v27.676c0,3.035,1.87,5.797,4.617,7.088c42.568,20.012,82.802,26.212,116.246,26.211c17.605,0,33.378-1.719,46.618-4.045
	c41.695-7.326,67.631-21.811,68.722-22.424c2.471-1.387,3.797-3.998,3.797-6.83v-27.676c0-29.657-23.694-54.525-53.352-54.525H191.5
	v-25.331c6-7.018,10.66-14.905,14.587-22.821c3.609-0.508,7.305-2.418,10.619-5.621c3.974-3.84,7.405-9.422,9.629-15.721
	c4.012-11.381,3.355-21.832-1.19-27.969c0-56.541-38.438-84.036-76.646-84.036c-16.995,0-68.329,0.007-68.845,0
	c-2.362-0.042-4.609,1.021-6.113,2.841c-1.507,1.819-2.109,4.221-1.643,6.537c2.471,12.281,7.065,23.356,13.658,33.145
	L78.939,79.115z M105.16,63.459c-0.04,7.989-1.803,13.596-4.978,15.793c-1.642,1.137-3.692,1.465-5.609,1.438l4.104-22.785
	C100.731,59.831,102.897,61.68,105.16,63.459z M122.5,190.074v-17.611c8,5.26,16.357,8.486,25.644,8.486
	c9.971,0,19.356-3.717,27.356-9.678v18.803c0,2.057,1.042,3.923,2.339,5.32c-1.718,11.412-16.761,31.056-29.13,44.459
	c-12.529-13.59-26.852-32.5-29.141-43.637C121.384,194.782,122.5,192.567,122.5,190.074z M213.032,93.326
	c0.444,2.127,0.546,7.805-1.451,13.47c-2.321,6.575-5.674,9.925-7.158,10.823c-1.672-0.675-3.538-0.758-5.281-0.211
	c-2.149,0.674-3.904,2.241-4.817,4.301c-8.904,20.102-26.249,43.574-45.826,43.574c-14.071,0-26.999-12.146-36.46-26.431
	c6.783,2.745,13.238,3.456,18.181,3.557c1.981,2.556,5.072,4.091,8.557,4.091h13.85c5.98,0,10.875-4.615,10.875-10.595v-3.409
	c0-5.98-4.895-10.996-10.875-10.996h-13.85c-3.943,0-7.383,2.198-9.277,5.348c-2.943-0.122-6.631-0.6-10.519-2.052
	c-10.921-4.078-18.951-13.638-23.93-28.451c4.366-0.042,9.335-1.012,13.906-4.126c5.814-3.959,9.506-10.32,11.045-18.972
	c9.675,5.345,20.666,9.702,32.938,12.991C174.147,91.923,200.927,93.182,213.032,93.326z M148.505,15.614
	c27.254,0,58.931,16.887,60.988,61.887c-0.019,0-0.036,0-0.055,0c-24.317,0-100.683-4.664-119.677-61.887
	C105.775,15.766,136.142,15.614,148.505,15.614z M252.5,258.894c-8,4.118-29.965,13.513-60.161,18.742
	c-35.136,6.087-88.839,7.581-147.839-18.958v-22.652c0-21.019,16.997-38.525,38.016-38.525h21.645
	c3.946,23,35.344,55.218,39.136,59.006c1.529,1.528,3.532,2.393,5.536,2.393c2.003,0,4.007-0.916,5.536-2.444
	c3.792-3.788,35.19-35.955,39.137-58.955h21.643c21.02,0,37.352,17.507,37.352,38.525V258.894z"/>
</svg>