<?xml version="1.0" encoding="UTF-8" standalone="no"?>
<!-- Uploaded to: SVG Repo, www.svgrepo.com, Generator: SVG Repo Mixer Tools -->

<svg
   width="1400"
   height="800"
   viewBox="0 0 42 24"
   fill="none"
   version="1.1"
   id="svg1"
   xml:space="preserve"
   xmlns="http://www.w3.org/2000/svg"
   xmlns:svg="http://www.w3.org/2000/svg"><defs
     id="defs1" /><path
     id="rect1"
     style="fill:#515352;stroke-width:0.483591"
     d="m 0.05401098,0.09542743 42.08283102,-0.06 c 0.01621,-2.311e-5 0.03729,0.01517516 0.02926,0.02925949 L 28.486937,24.060501 l 0.169647,-0.11537 -28.60257302,0.06232 c -0.01620972,3.5e-5 -0.02925949,-0.01305 -0.02925949,-0.02926 V 0.12468692 c 0,-0.0162098 0.01304975,-0.02923638 0.02925949,-0.02925949 z" /><g
     style="fill:#ffffff;fill-opacity:1;stroke:none;stroke-width:1.2;stroke-dasharray:none;stroke-opacity:1"
     id="g1"
     transform="matrix(0.97428561,0,0,1.0082131,7.7940874,-0.10740175)"><path
       fill-rule="evenodd"
       clip-rule="evenodd"
       d="M 17.3545,22.2323 C 15.3344,21.7262 11.1989,20.2993 7.44976,16.5502 3.70065,12.8011 2.2738,8.66559 1.76767,6.6455 1.47681,5.48459 2.00058,4.36434 2.88869,3.72997 L 5.21694,2.06693 C 6.57922,1.09388 8.47432,1.42407 9.42724,2.80051 L 10.893,4.91776 C 11.5152,5.8165 11.3006,7.0483 10.4111,7.68365 L 9.24234,8.51849 c 0.17689,0.67661 0.72705,2.06611 2.45006,3.78911 1.723,1.723 3.1125,2.2731 3.7891,2.45 l 0.8348,-1.1688 c 0.6354,-0.8894 1.8672,-1.1041 2.7659,-0.4819 l 2.1173,1.4658 c 1.3764,0.953 1.7066,2.848 0.7335,4.2103 l -1.663,2.3283 c -0.6344,0.8881 -1.7546,1.4119 -2.9155,1.121 z M 8.86397,15.136 c 3.40943,3.4094 7.17183,4.7041 8.97653,5.1563 0.2638,0.066 0.5827,-0.0365 0.802,-0.3435 l 1.6631,-2.3283 c 0.3243,-0.454 0.2143,-1.0857 -0.2446,-1.4034 l -2.1172,-1.4658 -0.8959,1.2543 c -0.3661,0.5126 -1.0432,0.9146 -1.8316,0.7445 -0.984,-0.2123 -2.803,-0.8932 -4.9381,-3.0283 C 8.1431,11.5867 7.46219,9.7677 7.24987,8.7837 7.07977,7.9953 7.48181,7.31821 7.99439,6.95208 L 9.24864,6.05618 7.78285,3.93893 C 7.46521,3.48011 6.83351,3.37005 6.37942,3.6944 L 4.05117,5.35744 C 3.74413,5.57675 3.64162,5.89565 3.70771,6.15943 4.15989,7.96418 5.45459,11.7266 8.86397,15.136 Z"
       fill="#0f0f0f"
       id="path1"
       style="fill:#ffffff;fill-opacity:1;stroke:none;stroke-width:1.2;stroke-dasharray:none;stroke-opacity:1" /></g></svg>
