<?xml version="1.0" encoding="UTF-8" standalone="no"?>
<!-- Created with Inkscape (http://www.inkscape.org/) -->

<svg
   width="900pt"
   height="75pt"
   viewBox="0 0 317.49997 26.45833"
   version="1.1"
   id="svg1"
   xmlns="http://www.w3.org/2000/svg"
   xmlns:svg="http://www.w3.org/2000/svg">
  <defs
     id="defs1" />
  <g
     id="layer1">
    <g
       id="g1"
       transform="matrix(-1.2097937,0,0,1,316.99452,0)">
      <path
         id="rect1"
         style="fill:#c6c6c6;fill-opacity:1;stroke-width:4.265"
         d="M 0.04141149,-0.25494939 222.21858,-0.00760994 c 1.33336,0.00148437 1.4617,0.73866671 1.1066,1.30496164 L 209.88892,25.421066 c -0.77716,1.222419 -2.55998,1.151939 -2.55998,1.151939 L 0.04141149,26.763079 c -0.14296098,1.31e-4 -0.25805241,-0.115092 -0.25805241,-0.258053 V 0.00310302 c 0,-0.14296104 0.11509146,-0.25821156 0.25805241,-0.25805241 z" />
      <path
         id="rect2"
         style="fill:#0a192c;fill-opacity:1;stroke-width:4.265"
         d="m 233.79369,-0.10150187 20.15888,0.15349863 0.0109,-0.08330239 -14.8368,26.48635863 -0.0297,-0.0051 -9.47567,0.01458 c -0.0251,3.9e-5 -11.95846,0.344803 -11.88508,0.222115 l 15.99002,-26.73315443 z" />
    </g>
  </g>
</svg>
