<?xml version="1.0" encoding="UTF-8" standalone="no"?>
<!-- Uploaded to: SVG Repo, www.svgrepo.com, Generator: SVG Repo Mixer Tools -->

<svg
   width="1400"
   height="800"
   viewBox="0 0 42 24"
   fill="none"
   version="1.1"
   id="svg1"
   xmlns="http://www.w3.org/2000/svg"
   xmlns:svg="http://www.w3.org/2000/svg">
  <defs
     id="defs1" />
  <path
     id="rect1"
     style="fill:#515352;stroke-width:0.483591"
     d="m 0.05401098,0.09542743 42.08283102,-0.06 c 0.01621,-2.311e-5 0.03729,0.01517516 0.02926,0.02925949 L 28.486937,24.060501 l 0.169647,-0.11537 -28.60257302,0.06232 c -0.01620972,3.5e-5 -0.02925949,-0.01305 -0.02925949,-0.02926 V 0.12468692 c 0,-0.0162098 0.01304975,-0.02923638 0.02925949,-0.02925949 z" />
  <path
     d="m 11.2,18 5,-6 m 11,6 -5,-6 m -12,-4 7.225,4.8166 c 0.6415,0.4277 0.9622,0.6416 1.3089,0.7246 0.3064,0.0735 0.6258,0.0735 0.9322,0 0.3467,-0.083 0.6674,-0.2969 1.3089,-0.7246 L 28.2,8 M 13.4,19 H 25 c 1.1201,0 1.6802,0 2.108,-0.218 0.3763,-0.1917 0.6823,-0.4977 0.874,-0.874 C 28.2,17.4802 28.2,16.9201 28.2,15.8 V 8.2 c 0,-1.1201 0,-1.68016 -0.218,-2.10798 C 27.7903,5.71569 27.4843,5.40973 27.108,5.21799 26.6802,5 26.1201,5 25,5 H 13.4 C 12.2799,5 11.71984,5 11.29202,5.21799 10.91569,5.40973 10.60973,5.71569 10.41799,6.09202 10.2,6.51984 10.2,7.07989 10.2,8.2 v 7.6 c 0,1.1201 0,1.6802 0.21799,2.108 0.19174,0.3763 0.4977,0.6823 0.87403,0.874 C 11.71984,19 12.27989,19 13.4,19 Z"
     stroke="#000000"
     stroke-width="2"
     stroke-linecap="round"
     stroke-linejoin="round"
     id="path1"
     style="fill:none;stroke:#ffffff;stroke-width:1.2;stroke-dasharray:none;stroke-opacity:1" />
</svg>
